<svg xmlns="http://www.w3.org/2000/svg" width="50" height="50" viewBox="0 0 32 32"><g fill="none" fill-rule="evenodd" transform="translate(4.148 2.963)"><path fill="#FFF" fill-rule="nonzero" d="M9.77433692,11.5261171 C9.79192354,10.9029391 9.46848268,10.4885066 8.78031063,10.2629391 C8.71149343,10.2629391 8.64344086,10.2537634 8.57462366,10.2545281 C7.51560335,10.265233 6.65615293,10.6819594 6.08114695,11.5750538 C5.63383513,12.2701075 5.93586619,12.9621027 6.73261649,13.1677897 C7.32597353,13.3203737 7.95432993,13.2558296 8.50427718,12.9858065 C8.81624851,12.7564158 9.14351254,12.5453763 9.43407407,12.2915173 C9.65144504,12.0965737 9.77524333,11.8180971 9.77433692,11.5261171 L9.77433692,11.5261171 Z"></path><path fill="#4cb6cd" fill-rule="nonzero" d="M22.8954839,11.2783751 C22.1004913,10.3116448 21.2097442,9.42781463 20.2368459,8.64038232 C19.2091756,7.81686977 18.1432736,7.03923536 17.0941935,6.24172043 C16.9963202,6.16525687 16.8976822,6.09491039 16.7975149,6.01921147 C17.0727838,5.72941458 17.3465233,5.47020311 17.5866189,5.17811231 C18.1318041,4.52664277 18.3091995,3.75894863 18.2273835,2.92778973 C18.1914456,2.56305854 17.9872879,2.33749104 17.6210275,2.280908 C17.3955826,2.24609887 17.1659604,2.24842351 16.9412664,2.28778973 C16.0856392,2.44683393 15.2858303,2.7618638 14.5999522,3.30322581 C14.2979211,3.54179211 14.0532378,3.85223417 13.7657348,4.14432497 L12.0835364,3.39804062 C12.0437754,3.09218638 12.0177778,2.74657109 11.9504898,2.41166069 C11.8243629,1.8139194 11.6186256,1.23579749 11.3387814,0.692759857 C11.2051803,0.42835692 11.0206884,0.192934901 10.7958901,0 L10.3829869,0 C9.7860112,0.282178161 9.3095358,0.768416286 9.0395221,1.37099164 C8.64879331,2.19221027 8.42169654,3.05318996 8.52339307,3.98757467 C8.19383513,4.209319 7.86351254,4.43335723 7.5125448,4.66886499 C7.44525687,4.56640382 7.3772043,4.46700119 7.31221027,4.36301075 C6.74026284,3.45156511 5.89304659,2.91479092 4.8837276,2.6265233 C4.3683632,2.47971326 3.97839904,2.69381123 3.78265233,3.19158901 C3.69374526,3.42673614 3.63740515,3.67293473 3.61519713,3.92334528 C3.49362007,5.16205496 3.73830346,6.29371565 4.62069295,7.23192354 C4.64221026,7.26024933 4.66114694,7.29044566 4.67727599,7.32215054 C4.31942652,7.7572282 3.95622461,8.18313023 3.60678614,8.62203106 C2.58958331,9.89329882 1.69360088,11.2569841 0.930561529,12.6952449 C0.56353644,13.397945 0.242389486,14.1144086 0.0688172043,14.892043 C0.0604062127,14.9402151 0,14.9868578 0,15.0281481 L0,16.335675 C0,16.3494385 0.040525687,16.360908 0.0435842294,16.3769654 C0.217156511,17.2891756 0.764635603,17.9972282 1.29988053,18.7136918 C2.45448029,20.2582557 3.86217443,21.5550777 5.29892473,22.8236081 C6.28858325,23.7129548 7.34879011,24.5205123 8.46910394,25.2383274 C8.94895385,25.5490538 9.45593517,25.8157244 9.98384707,26.0350777 C11.2898447,26.5580884 12.5499642,26.3447551 13.744325,25.6642294 C14.0728049,25.4768758 14.3823943,25.2581915 14.6687694,25.0112306 C17.1293668,22.8840143 19.4462127,20.6161051 21.4044444,18.0071685 C21.8724014,17.3837356 22.3158901,16.7432258 22.7349104,16.0856392 C23.1643261,15.4334288 23.4620069,14.7035135 23.6111828,13.9370131 C23.7931661,12.9338112 23.5431302,12.0567742 22.8954839,11.2783751 Z M14.1021744,5.96798088 C14.1021744,4.61763441 14.8561051,3.61060932 16.1919235,3.20152927 C16.4863614,3.10849586 16.787848,3.03945312 17.0934289,2.99507766 C17.4757467,2.9423178 17.6363202,3.11818399 17.54227,3.49744325 C17.4870956,3.73044527 17.3952109,3.9531882 17.2700597,4.15732378 C16.6428078,5.13593831 15.7819821,5.94315947 14.7651135,6.50628435 C14.745233,6.51775388 14.7253524,6.52998805 14.7054719,6.53992832 C14.2818638,6.74714456 14.1266428,6.65385902 14.1029391,6.1744325 C14.1021744,6.10561529 14.105233,6.04062127 14.105233,5.96798088 L14.1021744,5.96798088 Z M9.93491039,1.3037037 C10.0725448,1.10872162 10.2055914,0.873213859 10.4961529,0.921385902 C10.7752449,0.971087216 10.8585902,1.22188769 10.9289367,1.45051374 C11.0095476,1.7000261 11.069393,1.95577563 11.1078614,2.21514934 C11.1560335,2.56611708 11.1705615,2.92243728 11.1973238,3.24587814 C11.1529749,4.05715651 11.0535723,4.82637993 10.7828913,5.56578256 C10.7528688,5.65231689 10.7173689,5.73685257 10.6766069,5.81887694 C10.5542652,6.04826762 10.4112784,6.07120669 10.2178256,5.88692951 C10.1681801,5.83992748 10.1226458,5.78876531 10.0817204,5.73400239 C9.14198327,4.48458781 8.97146953,2.67622461 9.94026284,1.30599761 L9.93491039,1.3037037 Z M4.38900836,4.26131422 C4.40879092,4.0684861 4.43994029,3.87699407 4.48229391,3.68783751 C4.53275986,3.50203106 4.67421744,3.44162485 4.85772999,3.50891278 C4.96536299,3.54763093 5.06802991,3.59896439 5.16358423,3.6618399 C6.04826762,4.25290323 6.64162485,5.05194743 6.89013142,6.09491039 C6.95053763,6.35106332 7.0185902,6.60568698 7.06217443,6.86489845 C7.12640382,7.24721625 6.94442055,7.40778973 6.59268817,7.2632736 C5.17046595,6.68291517 4.39665472,5.76917563 4.38900836,4.26131422 Z M16.8663321,21.2362246 C16.335675,21.7714695 15.8264277,22.3342413 15.2017204,22.7708483 C14.4901457,23.2790026 13.6620802,23.5998155 12.7938829,23.7037037 C12.5216726,23.7358184 12.2486977,23.7572282 11.9757228,23.7725209 C11.2347909,23.812282 10.5229152,23.6517085 9.80951016,23.4758423 C9.6433387,23.4316747 9.48424852,23.3642287 9.33696535,23.2755078 C9.26050179,23.2296296 9.15268817,23.1042294 9.16951016,23.0499403 C9.21676908,22.9524143 9.29849562,22.8758638 9.39890084,22.8350777 C9.51679124,22.791522 9.63909754,22.7610095 9.76363202,22.744086 C10.8004779,22.5146953 11.847264,22.3235364 12.8711111,22.0490323 C14.2191637,21.6873596 15.5473357,21.260693 16.8877419,20.8630824 C16.9293062,20.8534798 16.9714497,20.8465836 17.0139068,20.8424373 L17.0735484,20.9074313 C17.0062605,21.0167742 16.9565591,21.1467622 16.8663321,21.2377539 L16.8663321,21.2362246 Z M19.8415293,14.6810036 C19.0310155,15.9969415 18.2747909,17.3495818 17.2807646,18.5424134 C16.1949821,19.8422939 14.8048746,20.62681 13.1723775,21.0144803 C12.2548148,21.2331661 11.3196655,21.357037 10.378399,21.2805735 C8.51498208,21.1276464 6.83048984,20.5480526 5.44038232,19.2221744 C4.49758662,18.3267861 3.76124253,17.2807646 3.03789725,16.2209797 C2.82303465,15.9067145 2.73204301,15.5427479 2.84903226,15.1718996 C3.27034648,13.8758423 3.6702509,12.5721386 4.14891278,11.297491 C4.54595558,10.2154892 5.18335374,9.23769222 6.01309438,8.43775388 C7.03847073,7.4567264 8.19001195,6.679092 9.61299881,6.40229391 C10.0824851,6.31130227 10.5642055,6.27918757 10.8180645,6.24936679 C13.2526643,6.29448029 15.1107288,7.1539307 16.6621744,8.69620072 C17.4528076,9.48224612 18.0132855,10.4250418 18.4338351,11.4557706 C18.7121625,12.1378256 19.059307,12.7801195 19.5639665,13.3291278 C19.6899298,13.4782044 19.7930099,13.6451942 19.8698208,13.8246117 C20.0131951,14.0948318 20.0024254,14.4208353 19.8415293,14.6810036 Z"></path><path fill="#4D403F" fill-rule="nonzero" d="M19.5632019,13.3283632 C19.0585424,12.7793548 18.7113978,12.1370609 18.4330705,11.455006 C18.0125209,10.4242772 17.452043,9.48148148 16.6614098,8.69543608 C15.1099642,7.15240143 13.2518996,6.29295102 10.8172999,6.24860215 C10.5634409,6.27995221 10.0817204,6.31206691 9.61223417,6.40152927 C8.18924731,6.679092 7.03464755,7.4567264 6.01232975,8.43775388 C5.18258911,9.23769222 4.54519094,10.2154892 4.14814815,11.297491 C3.6702509,12.5721386 3.27034648,13.8758423 2.84826762,15.1718996 C2.72821983,15.5427479 2.82227001,15.9067145 3.03713262,16.2209797 C3.76124253,17.2807646 4.49758662,18.3267861 5.43655914,19.2221744 C6.82666667,20.5480526 8.5111589,21.128411 10.3745759,21.2805735 C11.3158423,21.357037 12.2486977,21.2331661 13.1685544,21.0144803 C14.8010514,20.62681 16.1911589,19.84 17.2769415,18.5424134 C18.2747909,17.3495818 19.0310155,15.9969415 19.8415293,14.6810036 C20.0021836,14.4206979 20.0126621,14.0946972 19.8690562,13.8246117 C19.7923123,13.6449257 19.6892296,13.477674 19.5632019,13.3283632 L19.5632019,13.3283632 Z M15.1351971,18.5225329 C14.0157706,19.3047551 12.7495341,19.7130705 11.3923059,19.8637037 C9.74069295,20.0479809 8.25729988,19.6488411 6.94594982,18.6295818 C6.89461147,18.5852563 6.84560884,18.5382954 6.79913978,18.4888889 C5.6827718,17.5713262 4.98542413,16.402963 4.80573477,14.9616249 C4.59316607,13.2564875 5.15899642,11.7501553 6.10561529,10.378399 C6.88172043,9.2520908 7.89868578,8.41634409 9.22379928,8.01414576 C11.6767503,7.26862605 14.827049,8.07761051 16.4977778,10.8104182 C17.0226324,11.6605232 17.3507648,12.6172277 17.4581601,13.6105137 C17.4650457,13.7363296 17.4650457,13.8624279 17.4581601,13.9882437 C17.4956272,15.9151254 16.6996416,17.4283393 15.1351971,18.5225329 Z"></path><path fill="#3479b7" fill-rule="nonzero" d="M16.8885066,20.8600239 C15.5503943,21.2576344 14.2199283,21.6843011 12.8718757,22.0459737 C11.8480287,22.3204779 10.8012425,22.5124014 9.76439665,22.7410275 C9.63986218,22.757951 9.51755587,22.7884635 9.39966547,22.8320191 C9.29926025,22.8728053 9.21753372,22.9493558 9.17027479,23.0468817 C9.15345281,23.1011708 9.25897252,23.2265711 9.33772999,23.2724492 C9.48501316,23.3611701 9.64410334,23.4286161 9.81027479,23.4727838 C10.5213859,23.6486499 11.2355556,23.8092234 11.9764875,23.7694624 C12.2494624,23.7541697 12.5224373,23.7327599 12.7946476,23.7006452 C13.662425,23.5981219 14.4904569,23.2788997 15.2024851,22.7723775 C15.8271924,22.3357706 16.3364397,21.7745281 16.8670968,21.2377539 C16.9573238,21.1467622 17.0070251,21.0167742 17.0750777,20.9043728 L17.0154361,20.8393787 C16.9727222,20.8434922 16.9303223,20.8503885 16.8885066,20.8600239 L16.8885066,20.8600239 Z"></path><path fill="#4C4040" fill-rule="nonzero" d="M10.2193548 5.8953405C10.4143369 6.07961768 10.5573238 6.05897252 10.6781362 5.82728793 10.7188982 5.74526357 10.7543981 5.66072788 10.7844205 5.57419355 11.0551016 4.83479092 11.1545042 4.0655675 11.198853 3.25428913 11.1720908 2.93084827 11.1575627 2.57452808 11.1093907 2.22356033 11.0725028 1.96223072 11.0139336 1.70442371 10.9342891 1.45280765 10.8639427 1.22341697 10.781362.973381123 10.5015054.923679809 10.2109438.872449223 10.0778973 1.10795699 9.94026284 1.30599761 8.97376344 2.67775388 9.14427718 4.48458781 10.0855436 5.74088411 10.1256703 5.79608398 10.1704366 5.8477571 10.2193548 5.8953405zM14.7085305 6.53992832C14.728411 6.52998805 14.7482915 6.51775388 14.768172 6.50628435 15.7850407 5.94315947 16.6458663 5.13593831 17.2731183 4.15732378 17.3982695 3.9531882 17.4901542 3.73044527 17.5453286 3.49744325 17.6393787 3.11512545 17.4818638 2.9423178 17.0964875 2.99507766 16.7909066 3.03945312 16.4894199 3.10849586 16.1949821 3.20152927 14.8591637 3.61060932 14.1029391 4.61763441 14.1052278 5.96798088 14.1052278 6.03679809 14.1052278 6.10561529 14.1052278 6.1744325 14.1297013 6.65232975 14.2849223 6.74714456 14.7085305 6.53992832zM6.5911589 7.26403823C6.94289128 7.40855436 7.12640382 7.24415771 7.06064516 6.86566308 7.01706093 6.60645161 6.94900836 6.35182796 6.88860215 6.09567503 6.64009558 5.05271207 6.04750299 4.25366786 5.16205496 3.66260454 5.06650064 3.59972903 4.96383372 3.54839557 4.85620072 3.50967742 4.67268817 3.44238949 4.53123059 3.5027957 4.48076464 3.68860215 4.43841102 3.87775871 4.40726165 4.06925074 4.38747909 4.26207885 4.39665472 5.76917563 5.17046595 6.68291517 6.5911589 7.26403823z"></path><path fill="#FD8917" fill-rule="nonzero" d="M14.9210992,12.0743608 C14.1396416,11.92908 13.3543608,11.9718996 12.5736679,12.1041816 C12.4276225,12.1294146 12.2792832,12.1401195 12.1317085,12.1577061 C12.3710394,13.809319 12.4299164,15.4601673 12.1018877,17.1064277 C12.033147,17.4419535 11.9403872,17.7721066 11.824325,18.0943369 C11.6316368,18.641816 11.1048029,18.7978017 10.6383751,18.4521864 C10.5036032,18.346215 10.3835223,18.2227914 10.2812903,18.0851613 C9.35608124,16.893859 8.80707288,15.5419833 8.57080048,14.0578256 C7.72970131,14.8454002 7.11799283,15.7744325 6.83507766,16.9015054 C6.72573477,17.3342891 6.67679809,17.7724253 6.78996416,18.2166786 C6.80303165,18.3068011 6.80610884,18.398091 6.79913978,18.4888889 C6.84560884,18.5382954 6.89461147,18.5852563 6.94594982,18.6295818 C8.25806452,19.651135 9.74069295,20.0479809 11.3930705,19.8637037 C12.7502987,19.7107766 14.0165352,19.3047551 15.1359618,18.5225329 C16.7004062,17.4283393 17.4963919,15.9151254 17.4612186,13.9890084 C17.2784707,13.7007407 17.1224851,13.3910633 16.9076225,13.1295579 C16.3968459,12.5071446 15.6895579,12.216583 14.9210992,12.0743608 Z"></path><path fill="#FDB919" fill-rule="nonzero" d="M17.4581601,13.6105137 C17.3508761,12.6169639 17.0227397,11.6599865 16.4977778,10.8096535 C14.827049,8.07684588 11.6805735,7.26786141 9.22379928,8.01338112 C7.89868578,8.41634409 6.88172043,9.2520908 6.10637993,10.378399 C5.15899642,11.7547431 4.59316607,13.2564875 4.8064994,14.9616249 C4.98618877,16.402963 5.68353644,17.5682676 6.79990442,18.4888889 C6.80687347,18.398091 6.80379629,18.3068011 6.79072879,18.2166786 C6.67756272,17.7724253 6.7264994,17.3342891 6.83584229,16.9015054 C7.11875747,15.7744325 7.72970131,14.8454002 8.57156511,14.0578256 C8.55015532,13.7009956 8.5290004,13.3441657 8.50810036,12.9873357 C7.95815311,13.2573588 7.32979671,13.321903 6.73643967,13.169319 C5.93968937,12.963632 5.6376583,12.2716368 6.08497013,11.576583 C6.65997611,10.6834886 7.51942652,10.2667622 8.57844683,10.2560573 C8.64726404,10.2560573 8.71531661,10.2614098 8.78413381,10.2644683 C8.86021071,9.88142109 9.02463523,9.52141518 9.26432497,9.21309438 C9.39838915,9.04296696 9.55898017,8.89554338 9.73992832,8.77648746 C10.1268339,8.52645161 10.5167981,8.55550777 10.8280048,8.89577061 C11.064236,9.15811942 11.2628989,9.45199627 11.4183035,9.76898447 C11.7922103,10.5221505 11.9581362,11.3433692 12.1324731,12.1592354 C12.2800478,12.1416487 12.4283871,12.1309438 12.5744325,12.1057109 C13.3551254,11.9734289 14.1404062,11.9306093 14.9218638,12.0758901 C15.6903226,12.2181123 16.3976105,12.5086738 16.9099164,13.1310872 C17.124779,13.3925926 17.2807646,13.70227 17.4635125,13.9905376 C17.4687,13.8638607 17.4669132,13.7369943 17.4581601,13.6105137 L17.4581601,13.6105137 Z"></path><path fill="#4E3F3F" fill-rule="nonzero" d="M10.2812903,18.0851613 C10.3835223,18.2227914 10.5036032,18.346215 10.6383751,18.4521864 C11.1048029,18.7978017 11.6324014,18.641816 11.824325,18.0943369 C11.9403872,17.7721066 12.033147,17.4419535 12.1018877,17.1064277 C12.4299164,15.4601673 12.3710394,13.809319 12.1317085,12.1577061 C11.9573716,11.3418399 11.7914456,10.5206213 11.4175388,9.7674552 C11.2621342,9.450467 11.0634714,9.15659015 10.8272401,8.89424134 C10.5160335,8.55397849 10.1260693,8.52492234 9.73916368,8.77495818 C9.55821553,8.89401411 9.39762452,9.04143769 9.26356033,9.21156511 C9.02387059,9.51988591 8.85944607,9.87989182 8.78336918,10.2629391 C9.47154122,10.4885066 9.79192354,10.9029391 9.77739546,11.5261171 C9.77886341,11.8173549 9.65622997,12.0954353 9.44019116,12.2907527 C9.14962963,12.5446117 8.82236559,12.7556511 8.51039427,12.9850418 C8.53180406,13.3418718 8.55295898,13.6987017 8.57385902,14.0555317 C8.80707288,15.5419833 9.35608124,16.893859 10.2812903,18.0851613 Z"></path></g></svg>