<svg xmlns="http://www.w3.org/2000/svg" id="Layer_1" enable-background="new 0 0 256 256" height="512" viewBox="0 0 256 256" width="512"><g><g><g><path d="m103.917 102.222c1.05 8.49 1.17 17.08.37 25.6l-1.96 20.82c-7.54 10.64-18.01 16.35-30.45 19.02-.6.12-1.2.24-1.81.35v23.93h13.14c5.4 0 9.74 4.56 9.39 10.04-.33 5-4.7 8.79-9.71 8.79h-12.82v22.78c0 5.41-4.55 9.75-10.04 9.39-5-.32-8.78-4.7-8.78-9.71v-22.46h-13.14c-5.4 0-9.74-4.56-9.39-10.04.33-5 4.7-8.79 9.72-8.79h12.81v-23.93c-26.08-4.63-45.71-28.14-44.19-55.85 1.46-26.6 22.62-48.34 49.17-50.49 7.79-.63 15.4.63 22.42 3.35 5.42 2.11 7.35 8.83 4.02 13.61l-.21.29c-2.32 3.35-6.59 4.63-10.44 3.29-3.89-1.34-8.09-2.01-12.46-1.88-18.27.57-33.21 15.53-33.74 33.8-.58 19.69 15.27 35.9 34.84 35.9 13.14 0 21.92-5.61 28.12-15.01 4.04-6.12 6.15-13.25 6.69-20.55.09-1.12.18-2.25.34-3.36l.41-2.94c.93-6.61 2.99-12.99 6.11-18.79z" fill="#ff4a73"/></g><g><path d="m248.777 21.682-8.78 32.76c-1.36 5.1-7.74 6.8-11.47 3.07l-5.33-5.33-30.96 30.95c6.68 8.95 10.64 20.04 10.64 32.04 0 7.26-1.45 14.18-4.07 20.5-8.21 19.79-27.94 32.34-49.36 32.34h-.16c-9.63 0-18.71-2.53-26.57-6.96-2.86-1.62-4.51-4.65-4.51-7.81 0-.9.13-1.81.41-2.7 1.69-5.5 8.08-8.15 13.05-5.25 5.16 3.02 11.15 4.74 17.53 4.74 20.54 0 36.99-17.86 34.63-38.87-1.8-16.11-14.81-28.99-30.94-30.66-18.82-1.94-35.05 11.19-38.05 28.78-.18 1.03-.34 2.07-.55 3.1l-3.1 15.24c-1.12 5.53-2.94 10.92-5.65 15.87-1 1.83-2.07 3.55-3.21 5.15l1.962-20.818c.803-8.523.678-17.108-.373-25.604l-1.588-12.838c2.69-5.01 6.16-9.59 10.37-13.52 8.55-7.95 19.7-13.19 32.07-14.19 12.49-1.01 24.17 2.29 33.75 8.56l31.37-31.36-5.34-5.34c-3.73-3.73-2.03-10.11 3.07-11.47l32.76-8.78c5.099-1.37 9.769 3.3 8.399 8.4z" fill="#5fcdff"/></g><g><path d="m66.247 233.232c0 2.21.73 4.28 1.97 5.94-1.84 2.46-4.84 3.99-8.19 3.77-5-.32-8.78-4.7-8.78-9.71v-22.46h-13.14c-5.4 0-9.74-4.56-9.39-10.04.33-5 4.7-8.79 9.72-8.79h12.81v-23.93c-26.08-4.63-45.71-28.14-44.19-55.85 1.46-26.6 22.62-48.34 49.17-50.49 3.88-.31 7.71-.16 11.44.41-24.86 3.71-44.22 24.68-45.61 50.08-1.52 27.71 18.11 51.22 44.19 55.85v23.93h-12.81c-5.02 0-9.39 3.79-9.72 8.79-.35 5.48 3.99 10.04 9.39 10.04h13.14z" fill="#f973a3"/></g><g fill="#30b6ff"><path d="m216.207 59.172-23.97 23.96c6.68 8.95 10.64 20.04 10.64 32.04 0 7.26-1.45 14.18-4.07 20.5-8.21 19.79-27.94 32.34-49.36 32.34h-.16c-2.52 0-5.01-.17-7.45-.51 18.46-2.51 34.71-14.34 41.97-31.83 2.62-6.32 4.07-13.24 4.07-20.5 0-9.971-2.734-19.313-7.49-27.322-1.738-2.926-1.195-6.672 1.211-9.077l21.268-21.262c2.944-2.943 7.717-2.943 10.661.001.8.8 1.71 1.35 2.68 1.66z"/><path d="m248.777 21.682-8.78 32.76c-1.36 5.1-7.74 6.8-11.47 3.07l-3.43-3.43 8.68-32.4c.63-2.36-.03-4.63-1.43-6.25l8.03-2.15c5.1-1.37 9.77 3.3 8.4 8.4z"/></g></g></g></svg>