<svg xmlns="http://www.w3.org/2000/svg" id="Capa_1" enable-background="new 0 0 512 512" height="512" viewBox="0 0 256 512" width="512"><g><g><g><path d="m261.191 171.026c0-70.053-56.786-126.84-126.84-126.84-70.043 0-126.84 56.786-126.84 126.84 0 60.965 43.018 111.879 100.345 124.064v62.999c0 2.736-2.215 4.94-4.94 4.94h-10c-14.64 0-26.504 11.864-26.504 26.504 0 7.315 2.966 13.949 7.766 18.738 4.79 4.8 11.413 7.766 18.738 7.766h10.001c2.726 0 4.94 2.204 4.94 4.94v20.332c0 14.64 11.864 26.504 26.494 26.504 7.315 0 13.949-2.966 18.738-7.766 4.8-4.79 7.766-11.413 7.766-18.738v-20.332c0-2.736 2.215-4.94 4.94-4.94h10c14.64 0 26.504-11.864 26.504-26.504 0-7.315-2.966-13.949-7.766-18.738-4.79-4.8-11.423-7.766-18.738-7.766h-10c-2.726 0-4.94-2.205-4.94-4.94v-62.999c57.328-12.185 100.336-63.099 100.336-124.064zm-126.84 76.757c-42.387 0-76.747-34.36-76.747-76.757 0-42.387 34.36-76.747 76.747-76.747 42.397 0 76.757 34.36 76.757 76.747 0 42.397-34.36 76.757-76.757 76.757z" fill="#fe7ab6"/></g></g><g><g><path d="m134.351 44.186c-20.863 0-40.553 5.04-57.909 13.969 11.954-3.738 24.681-5.752 37.868-5.752 70.053 0 126.84 56.786 126.84 126.84 0 49.171-27.977 91.808-68.881 112.851 51.525-16.113 88.922-64.221 88.922-121.068 0-70.053-56.786-126.84-126.84-126.84z" fill="#fe5ca7"/></g></g><g><path d="m145.253 416.609c-2.726 0-4.94 2.676-4.94 5.411v19.289c0 7.325-2.966 13.949-7.766 18.738-2.405 2.405-5.271 4.359-8.457 5.702 3.156 1.333 6.624 2.064 10.261 2.064 7.315 0 13.949-2.966 18.738-7.766 4.8-4.79 7.766-11.413 7.766-18.738v-20.332c0-1.904 1.072-3.547 2.635-4.369-2.805-.21-18.237.001-18.237.001z" fill="#fe5ca7"/></g><g><path d="m194.534 370.795c-4.79-4.8-11.423-7.766-18.738-7.766h-10c-2.728 0-4.94-2.212-4.94-4.94v-63.322s-3.747.459-8.43.756c-6.815.432-12.112 6.112-12.112 12.941v66.659c0 2.71 2.184 4.939 4.894 4.94 4.14.001 8.274-.172 12.416-.172 4.067 0 8.145-.299 12.203.133 11.103 1.183 17.493 9.511 15.256 20.573-1.201 5.938-4.598 12.067-10.299 14.698-.651.301-1.323.551-2.004.741h2.482c14.493 0 26.71-11.413 27.032-25.902.167-7.551-2.829-14.418-7.76-19.339z" fill="#fe5ca7"/></g><g/></g></svg>