<svg xmlns="http://www.w3.org/2000/svg" id="Capa_1" enable-background="new 0 0 512 512" height="512" viewBox="256 0 256 512" width="512"><g><g><path d="m404.144 216.91v-73.05c9.7 4.219 21.404 2.375 29.33-5.551 5.181-5.181 7.766-11.954 7.766-18.738s-2.585-13.568-7.766-18.738l-45.774-45.774c-5.551-5.561-14.56-5.561-20.111 0l-45.774 45.774c-10.351 10.341-10.351 27.126 0 37.477 5.171 5.171 11.944 7.756 18.728 7.756 3.617 0 7.225-.742 10.602-2.205v73.05c-57.327 12.185-100.335 63.099-100.335 124.064 0 70.053 56.786 126.84 126.84 126.84 70.043 0 126.84-56.786 126.84-126.84-.001-60.966-43.019-111.88-100.346-124.065zm-26.495 200.811c-42.397 0-76.757-34.36-76.757-76.747 0-42.397 34.36-76.757 76.757-76.757 42.387 0 76.747 34.36 76.747 76.757 0 42.387-34.36 76.747-76.747 76.747z" fill="#62dbfb"/></g><g><path d="m391.027 84.399c-8.678-8.688-18.591-16.837-27.269-25.515l3.831-3.825c5.551-5.561 14.56-5.561 20.111 0l45.774 45.774c5.181 5.171 7.766 11.954 7.766 18.738s-2.585 13.558-7.766 18.738c-7.926 7.926-19.63 9.77-29.33 5.551v72.739c-2.892-.386-5.83-.682-8.813-.882-6.302-.424-11.228-5.596-11.228-11.912v-62.825c0-6.204 4.548-11.532 10.698-12.346 9.087-1.202 17.179-10.662 15.878-21.342-.671-5.581-5.703-8.734-9.631-12.622-3.348-3.327-6.674-6.935-10.021-10.271z" fill="#01d0fb"/></g><g><path d="m419.976 221.379c39.591 21.454 66.476 63.37 66.476 111.568 0 70.053-56.796 126.84-126.84 126.84-14.85 0-29.11-2.555-42.357-7.245 17.957 9.74 38.529 15.271 60.394 15.271 70.043 0 126.84-56.786 126.84-126.84 0-55.202-35.282-102.168-84.513-119.594z" fill="#01d0fb"/></g><g/></g></svg>